<svg id="图层_2" data-name="图层 2" xmlns="http://www.w3.org/2000/svg" viewBox="0 0 75.79778 104.52462"><defs><style>.cls-1{fill:#444;}.cls-2{fill:#ff6900;fill-rule:evenodd;}.cls-3{fill:#fff;}</style></defs><path class="cls-1" d="M79.43918,249.96067H76.14524l-3.331,4.36726-3.29395-4.36726h-3.405l4.92242,6.34733-5.163,6.6064h3.27545l3.553-4.60783,3.4975,4.60783h3.42348l-5.14447-6.62491Zm47.91027,1.573a5.78636,5.78636,0,0,0-4.68185-1.92456,13.01832,13.01832,0,0,0-5.237,1.25837l.037,12.047h2.88683V252.4959a6.83442,6.83442,0,0,1,2.4427-.48114,2.28584,2.28584,0,0,1,2.51672,2.36869v8.53095h2.86833V251.92224l-.6662,1.44341a4.8922,4.8922,0,0,1,3.14591-1.29537,2.2222,2.2222,0,0,1,2.49822,2.27615v8.568H136.047v-9.49323c0-2.29466-1.81353-3.8121-4.58932-3.8121a7.86455,7.86455,0,0,0-5.10747,1.70249Zm11.43628-1.573V262.9144h2.88683V249.96067ZM108.3815,260.98984c-2.40569,0-3.77509-1.721-3.77509-4.71885,0-2.84982,1.3694-4.47829,3.77509-4.47829,2.42419,0,3.79359,1.62847,3.79359,4.47829C112.17509,259.26885,110.80569,260.98984,108.3815,260.98984Zm0-11.38077c-4.33025,0-6.81,2.4242-6.81,6.66192.01851,4.40426,2.49822,6.921,6.81,6.90248,4.34875,0,6.82846-2.51672,6.82846-6.90248C115.21,252.03327,112.73025,249.60907,108.3815,249.60907ZM81.84487,262.9144H84.7317V249.96067H81.84487Zm14.76725-2.29466c-3.21993.77722-6.5879.27758-6.5879-1.53594,0-1.721,1.94306-2.59075,6.5879-2.35018Zm-3.59-11.01067a19.26666,19.26666,0,0,0-4.86689.77723V252.681a18.85778,18.85778,0,0,1,5.03344-.6662c2.47971,0,3.34946.92527,3.34946,2.38719v.20356c-6.79145-.22206-9.32668,1.62847-9.32668,4.34875s2.10961,4.21921,7.069,4.21921a16.11727,16.11727,0,0,0,5.126-.86975V254.698C99.40642,251.0895,97.70393,249.60907,93.02208,249.60907Z" transform="translate(-65.87478 -158.64895)"/><path class="cls-2" d="M138.79561,234.45017H68.7519a2.878,2.878,0,0,1-2.87712-2.8786v-70.0455A2.87716,2.87716,0,0,1,68.7519,158.649h70.04371a2.8769,2.8769,0,0,1,2.87695,2.87712v70.0455a2.87778,2.87778,0,0,1-2.87695,2.8786" transform="translate(-65.87478 -158.64895)"/><path class="cls-3" d="M125.31205,182.4924h-5.96287a.45725.45725,0,0,0-.46205.45333v27.20894a.45684.45684,0,0,0,.46205.4507h5.96287a.45913.45913,0,0,0,.46273-.4507V182.94573a.45953.45953,0,0,0-.46273-.45333" transform="translate(-65.87478 -158.64895)"/><path class="cls-3" d="M104.94927,182.4924H82.23381a.45619.45619,0,0,0-.46057.45333v27.20894a.45577.45577,0,0,0,.46057.4507h5.96435a.45967.45967,0,0,0,.46468-.4507V188.79934a.45689.45689,0,0,1,.46091-.451h12.84856a4.35551,4.35551,0,0,1,4.63824,4.55191v17.25445a.45829.45829,0,0,0,.46371.4507h5.96024a.45761.45761,0,0,0,.46171-.4507v-19.3026a7.71059,7.71059,0,0,0-2.24441-5.89624,8.05652,8.05652,0,0,0-6.30253-2.46343" transform="translate(-65.87478 -158.64895)"/><path class="cls-3" d="M100.77635,193.32736H94.51366a.45971.45971,0,0,0-.46468.45187v16.37544a.45936.45936,0,0,0,.46468.4507h6.26269a.4576.4576,0,0,0,.46074-.4507V193.77923a.458.458,0,0,0-.46074-.45187" transform="translate(-65.87478 -158.64895)"/></svg>